<?xml version="1.0" encoding="UTF-8" standalone="no"?>
<!DOCTYPE svg PUBLIC "-//W3C//DTD SVG 1.1//EN" "http://www.w3.org/Graphics/SVG/1.1/DTD/svg11.dtd">
<svg xmlns="http://www.w3.org/2000/svg" version="1.1" viewBox="0.00 0.00 499.00 319.00">
<g stroke-width="2.00" fill="none" stroke-linecap="butt">
<path stroke="#818181" vector-effect="non-scaling-stroke" d="
  M 317.28 176.89
  L 314.26 184.28
  A 0.68 0.64 -6.4 0 1 313.98 184.61
  L 296.46 194.80
  A 0.36 0.36 0.0 0 1 295.92 194.43
  C 298.66 178.55 297.98 164.88 295.43 148.09"
/>
<path stroke="#82e0e4" vector-effect="non-scaling-stroke" d="
  M 295.43 148.09
  Q 297.51 142.50 297.73 136.83"
/>
<path stroke="#818181" vector-effect="non-scaling-stroke" d="
  M 297.73 136.83
  Q 308.29 133.28 318.46 134.83
  A 1.16 1.16 0.0 0 0 319.72 133.26
  C 317.64 127.91 303.43 130.98 298.85 132.31"
/>
<path stroke="#82e0e4" vector-effect="non-scaling-stroke" d="
  M 298.85 132.31
  Q 299.88 125.12 297.86 119.22
  C 293.83 107.47 282.44 109.99 274.86 115.87
  C 260.44 127.04 248.67 144.54 240.24 160.50
  Q 228.36 182.98 223.93 206.07"
/>
<path stroke="#818181" vector-effect="non-scaling-stroke" d="
  M 223.93 206.07
  Q 223.82 193.31 227.58 181.03
  Q 228.22 178.95 227.45 175.56
  Q 227.34 175.10 226.97 174.82
  C 221.74 170.90 211.23 189.68 209.26 193.42
  A 0.39 0.39 0.0 0 1 208.52 193.21
  L 209.61 178.79
  A 1.11 1.11 0.0 0 1 210.10 177.95
  C 219.31 171.93 225.75 157.68 228.71 147.34
  A 0.62 0.60 -79.8 0 1 229.33 146.90
  L 234.29 147.18
  A 1.55 1.55 0.0 0 0 235.42 144.48
  Q 233.01 142.32 229.73 142.79
  A 0.61 0.61 0.0 0 1 229.03 142.23
  C 228.91 140.78 228.87 139.34 228.33 138.12
  C 226.12 133.12 221.35 134.47 218.33 137.73
  Q 215.31 140.97 213.69 145.31
  A 1.01 1.00 -86.1 0 1 212.97 145.94
  L 205.08 147.85
  Q 204.38 148.02 204.48 147.30
  L 205.11 143.01
  A 1.56 1.55 -80.2 0 0 203.88 141.26
  C 200.63 140.59 199.31 147.01 198.52 149.33
  Q 198.35 149.82 197.86 149.98
  L 186.29 153.85"
/>
<path stroke="#82e0e4" vector-effect="non-scaling-stroke" d="
  M 186.29 153.85
  C 187.17 151.70 188.47 149.46 189.10 147.35
  Q 204.98 94.50 226.86 43.85
  C 228.56 39.90 234.06 29.27 230.14 24.99
  C 224.56 18.88 217.76 26.58 215.28 31.08
  Q 198.45 61.56 185.51 97.50
  Q 170.23 139.91 157.45 183.15
  Q 156.48 186.41 156.26 188.70"
/>
<path stroke="#818181" vector-effect="non-scaling-stroke" d="
  M 156.26 188.70
  L 151.54 192.64
  Q 150.99 193.10 150.91 192.39
  C 149.04 176.47 138.87 186.24 135.37 193.19
  A 0.35 0.35 0.0 0 1 134.71 193.00
  C 135.11 187.94 135.18 180.27 137.91 176.19
  C 144.73 166.03 152.59 152.56 152.97 140.05
  C 153.08 136.32 150.33 133.21 146.70 135.83
  C 142.99 138.50 140.19 145.40 138.69 149.97
  Q 134.61 162.43 132.63 175.40
  C 132.43 176.76 131.79 177.30 130.78 178.06
  A 0.86 0.85 -25.9 0 0 130.46 178.98
  C 131.15 181.36 133.24 183.38 130.46 185.58
  Q 122.43 191.95 114.92 198.68
  A 0.56 0.55 61.9 0 1 114.02 198.40
  Q 111.56 188.93 101.22 189.56
  Q 99.58 189.66 97.78 189.65
  Q 97.06 189.64 97.53 189.10
  C 99.69 186.57 112.43 173.79 105.97 170.92
  C 100.80 168.62 88.88 179.23 85.82 182.88
  Q 84.35 184.63 80.96 190.65
  Q 77.69 196.46 73.20 201.17
  A 1.82 1.82 0.0 0 1 70.27 200.77
  C 66.31 193.23 69.86 178.30 73.26 170.93
  A 1.58 1.58 0.0 0 0 71.87 168.69
  C 67.45 168.57 64.94 185.42 64.73 188.65
  C 64.39 193.84 64.31 197.66 66.37 201.94
  C 72.35 214.33 83.40 194.80 85.82 190.41
  Q 88.66 185.25 90.58 183.25
  Q 95.69 177.93 102.79 175.06
  A 0.35 0.35 0.0 0 1 103.21 175.58
  Q 97.72 183.43 90.10 190.88
  Q 88.84 192.12 88.75 194.07
  A 0.97 0.96 -71.7 0 0 89.16 194.90
  Q 90.76 196.01 92.77 195.33
  C 97.63 193.70 107.40 191.30 109.58 197.91
  C 110.30 200.10 111.09 201.92 109.43 203.41
  C 104.01 208.27 79.90 228.48 86.32 235.55
  C 90.10 239.71 97.20 234.30 99.87 231.63
  Q 111.00 220.51 114.17 204.98
  A 1.25 1.21 -15.7 0 1 114.57 204.29
  L 129.98 191.03
  Q 130.57 190.53 130.50 191.29
  Q 129.84 199.05 128.98 206.76
  Q 128.75 208.80 130.04 209.67
  A 1.91 1.91 0.0 0 0 132.90 208.76
  C 135.11 202.79 139.14 191.94 144.47 188.31
  A 1.11 1.11 0.0 0 1 146.18 188.98
  C 147.14 193.33 147.16 196.49 144.05 199.98
  C 140.76 203.68 130.14 215.99 134.66 221.09
  A 1.32 1.29 71.5 0 0 135.50 221.52
  C 143.62 222.27 148.63 206.67 150.14 200.71
  Q 150.70 198.50 154.43 195.95"
/>
<path stroke="#82e0e4" vector-effect="non-scaling-stroke" d="
  M 154.43 195.95
  Q 148.81 215.50 145.17 235.51
  C 142.44 250.50 140.55 260.96 142.41 273.86
  A 2.78 2.77 75.8 0 1 140.64 276.85
  C 131.62 280.24 104.78 293.86 105.74 305.50
  C 106.24 311.64 111.94 316.50 118.08 313.80
  Q 119.72 313.08 124.29 308.98
  Q 127.95 305.68 131.82 303.54
  Q 151.34 292.68 174.18 284.74
  Q 203.61 274.51 233.10 264.37
  Q 233.35 264.29 233.53 264.48
  Q 249.59 281.59 272.34 272.57
  Q 283.91 267.98 293.94 256.21"
/>
<path stroke="#818181" vector-effect="non-scaling-stroke" d="
  M 293.94 256.21
  L 291.01 263.53
  A 0.72 0.72 0.0 0 0 291.46 264.49
  Q 291.89 264.62 292.37 264.43
  Q 292.72 264.29 293.00 263.85
  Q 293.65 262.87 294.32 261.84
  A 1.00 0.99 -73.6 0 1 295.13 261.39
  L 298.88 261.32
  A 1.21 1.20 69.3 0 1 299.82 261.75
  Q 300.73 262.83 301.42 264.07
  Q 301.95 265.01 303.05 264.12
  Q 303.40 263.83 303.23 263.41
  L 298.48 251.80"
/>
<path stroke="#82e0e4" vector-effect="non-scaling-stroke" d="
  M 298.48 251.80
  Q 318.41 225.94 330.46 194.46"
/>
<path stroke="#818181" vector-effect="non-scaling-stroke" d="
  M 330.46 194.46
  Q 330.27 201.29 332.84 205.51
  C 337.32 212.86 347.85 198.30 349.89 195.47
  Q 351.18 193.70 351.14 195.89
  C 351.10 198.07 351.75 200.73 354.45 200.50
  C 357.43 200.24 361.38 191.82 363.40 187.85
  Q 363.86 186.94 363.93 187.96
  C 364.16 191.23 362.89 208.56 370.93 206.13
  C 375.73 204.68 381.19 192.87 382.94 188.40
  Q 383.17 187.82 383.65 188.21
  C 390.93 194.05 388.86 203.34 388.99 213.02
  Q 389.02 215.37 391.80 218.44
  Q 392.13 218.80 392.61 218.89
  Q 396.83 219.64 399.59 216.03
  Q 405.45 208.37 409.11 199.58
  A 0.58 0.58 0.0 0 1 410.18 199.60
  C 414.82 211.74 430.15 204.73 436.45 198.68
  Q 440.09 195.17 443.79 191.74
  Q 445.72 189.95 448.63 186.22
  Q 454.42 178.82 463.36 174.96
  A 0.38 0.38 0.0 0 1 463.81 175.53
  Q 457.79 183.69 450.58 191.08
  Q 449.87 191.79 449.57 192.51
  Q 449.04 193.77 449.34 194.30
  Q 450.44 196.24 452.56 195.55
  C 459.03 193.43 471.77 190.48 470.64 202.34
  Q 470.59 202.83 470.23 203.15
  C 464.05 208.58 445.67 224.15 445.70 232.55
  C 445.72 237.22 450.62 237.84 454.08 236.07
  C 464.81 230.59 472.24 216.47 474.71 205.17
  Q 474.81 204.68 475.19 204.34
  Q 484.63 195.79 494.53 187.77
  Q 496.70 186.02 494.40 184.73
  A 2.49 2.48 39.6 0 0 491.59 184.99
  L 475.30 198.60
  A 0.48 0.48 0.0 0 1 474.53 198.34
  C 472.66 190.11 465.65 188.93 458.23 189.72
  Q 457.52 189.79 457.99 189.25
  C 460.65 186.16 470.69 175.68 467.96 171.98
  C 463.94 166.54 450.77 178.33 447.66 181.52
  C 441.49 187.85 435.69 194.85 428.19 199.66
  C 424.66 201.93 418.00 203.73 414.97 199.87
  C 412.22 196.36 413.84 189.62 415.47 185.68
  Q 415.65 185.23 416.14 185.22
  C 417.82 185.19 419.16 185.04 420.49 183.91
  C 423.15 181.67 429.73 172.27 425.47 169.53
  C 420.47 166.30 413.45 180.07 411.92 183.64
  C 409.62 188.99 399.72 213.03 394.62 214.94
  A 0.63 0.63 0.0 0 1 393.81 214.56
  C 392.27 210.13 393.09 203.65 393.03 198.90
  C 392.95 191.97 390.08 188.47 385.07 183.61
  A 0.77 0.76 34.8 0 1 384.91 182.74
  C 386.43 179.41 389.54 172.52 385.71 169.60
  Q 382.67 167.28 379.62 170.70
  Q 373.47 177.60 380.52 184.29
  Q 380.89 184.65 380.63 185.10
  L 371.23 201.47
  A 1.12 1.12 0.0 0 1 369.27 201.44
  C 366.54 196.33 368.66 182.28 369.81 176.52
  Q 370.33 173.88 368.38 172.92
  A 1.63 1.63 0.0 0 0 366.23 173.61
  L 363.12 179.44
  A 0.44 0.43 37.2 0 1 362.42 179.53
  C 357.73 174.58 354.68 180.85 352.88 184.13
  Q 350.35 188.73 340.62 200.36
  Q 339.05 202.23 336.61 203.14
  A 0.63 0.62 -19.1 0 1 335.79 202.75
  C 333.15 194.61 335.67 181.29 337.56 174.05"
/>
<path stroke="#82e0e4" vector-effect="non-scaling-stroke" d="
  M 337.56 174.05
  Q 339.31 170.11 340.51 166.00
  Q 355.10 116.35 366.04 65.78
  Q 369.58 49.41 368.17 29.67
  Q 367.62 21.96 365.58 18.20
  C 358.74 5.62 343.91 10.49 333.75 14.56
  Q 308.43 24.70 285.31 39.13
  C 281.11 41.75 278.50 43.13 276.58 46.54
  C 273.11 52.68 277.28 62.27 285.40 58.55
  A 1.70 1.69 -86.0 0 0 286.13 57.91
  Q 287.57 55.61 289.26 54.55
  Q 301.44 46.97 319.01 37.78
  C 328.67 32.73 339.36 27.80 350.25 26.27
  A 0.84 0.84 0.0 0 1 351.21 27.12
  C 350.79 46.16 346.27 64.08 341.95 82.46
  Q 332.40 123.11 321.73 163.48
  Q 320.92 166.55 317.28 176.89"
/>
<path stroke="#046266" vector-effect="non-scaling-stroke" d="
  M 337.56 174.05
  C 337.27 171.57 333.94 170.90 332.65 173.17
  Q 326.28 184.32 319.32 195.11
  Q 318.35 196.63 317.23 197.74
  A 0.62 0.61 -21.8 0 1 316.18 197.29
  C 316.31 191.68 317.27 183.09 321.11 178.71
  A 1.56 1.55 -29.8 0 0 321.48 177.37
  Q 320.76 173.68 317.28 176.89"
/>
<path stroke="#046266" vector-effect="non-scaling-stroke" d="
  M 297.73 136.83
  Q 295.47 136.60 293.64 137.93
  A 0.83 0.83 0.0 0 0 293.32 138.78
  L 295.43 148.09"
/>
<path stroke="#046266" vector-effect="non-scaling-stroke" d="
  M 330.46 194.46
  L 331.02 185.49
  A 0.37 0.37 0.0 0 0 330.34 185.28
  C 327.02 190.70 322.70 199.33 317.36 202.80
  A 2.55 2.54 -34.7 0 1 313.93 202.18
  Q 311.15 198.41 312.91 193.52
  Q 313.43 192.11 312.23 190.30"
/>
<path stroke="#046266" vector-effect="non-scaling-stroke" d="
  M 292.74 158.30
  L 289.92 140.60
  Q 289.70 139.23 288.39 139.68
  L 281.31 142.12"
/>
<path stroke="#046266" vector-effect="non-scaling-stroke" d="
  M 298.85 132.31
  L 282.57 137.43"
/>
<path stroke="#82e0e4" vector-effect="non-scaling-stroke" d="
  M 282.57 137.43
  L 284.68 127.07
  A 0.95 0.95 0.0 0 0 283.13 126.16
  Q 265.21 141.54 254.45 161.44
  Q 246.41 176.30 243.19 185.80"
/>
<path stroke="#046266" vector-effect="non-scaling-stroke" d="
  M 243.19 185.80
  Q 243.52 184.77 241.78 184.70
  C 240.21 184.64 239.25 185.90 238.72 187.20
  Q 233.77 199.30 225.81 210.12
  A 0.83 0.83 0.0 0 1 224.32 209.72
  L 223.93 206.07"
/>
<path stroke="#046266" vector-effect="non-scaling-stroke" d="
  M 298.48 251.80
  Q 296.77 249.38 293.94 256.21"
/>
<path stroke="#818181" vector-effect="non-scaling-stroke" d="
  M 282.57 137.43
  C 279.09 138.74 272.39 141.31 270.23 144.43
  C 269.28 145.80 269.81 147.28 271.54 147.42
  A 1.26 1.24 -61.5 0 0 272.42 147.15
  Q 276.40 143.97 281.31 142.12"
/>
<path stroke="#82e0e4" vector-effect="non-scaling-stroke" d="
  M 281.31 142.12
  Q 271.11 173.93 260.79 205.45
  C 259.08 210.70 257.78 213.96 258.34 218.01
  C 258.95 222.41 263.45 224.49 267.08 221.69
  Q 269.17 220.08 270.41 217.39
  Q 284.01 187.85 292.74 158.30"
/>
<path stroke="#818181" vector-effect="non-scaling-stroke" d="
  M 292.74 158.30
  Q 294.97 177.93 290.99 197.90
  A 2.20 2.17 78.1 0 1 290.12 199.25
  C 280.76 205.92 271.66 214.18 267.28 225.18
  C 264.10 233.13 270.08 238.11 276.97 232.56
  C 285.82 225.42 290.91 213.45 294.21 202.85
  C 295.40 199.00 308.86 192.12 312.23 190.30"
/>
<path stroke="#82e0e4" vector-effect="non-scaling-stroke" d="
  M 312.23 190.30
  C 303.64 211.80 294.06 230.18 279.86 246.45
  A 0.31 0.31 0.0 0 1 279.32 246.19
  Q 280.37 239.70 275.09 237.03
  C 272.96 235.96 268.27 235.46 266.21 235.80
  Q 252.31 238.07 238.68 242.64
  Q 238.12 242.83 237.97 242.26
  Q 233.92 226.77 236.36 211.02
  Q 237.35 204.61 238.45 197.91"
/>
<path stroke="#818181" vector-effect="non-scaling-stroke" d="
  M 238.45 197.91
  Q 241.82 192.03 243.19 185.80"
/>
<path stroke="#046266" vector-effect="non-scaling-stroke" d="
  M 238.45 197.91
  Q 234.51 205.07 229.90 211.42
  Q 227.26 215.05 223.03 215.39"
/>
<path stroke="#818181" vector-effect="non-scaling-stroke" d="
  M 223.03 215.39
  Q 218.81 210.53 219.56 201.99
  Q 220.52 191.13 223.42 180.85
  A 0.33 0.33 0.0 0 0 222.85 180.55
  C 217.00 187.32 213.23 194.88 209.09 202.48
  A 2.28 2.28 0.0 0 1 205.06 202.43
  Q 204.24 200.82 204.28 198.25
  C 204.49 182.44 206.25 165.52 211.31 151.07
  Q 211.52 150.47 210.91 150.63
  L 202.58 152.86
  A 1.24 1.23 86.7 0 0 201.68 153.87
  Q 197.61 181.46 198.09 209.29
  C 198.15 213.22 198.96 217.14 199.66 221.01
  A 1.34 1.34 0.0 0 1 198.10 222.56
  C 192.48 221.55 193.84 196.35 194.08 191.89
  Q 194.12 191.12 193.58 191.67
  C 186.58 198.76 180.81 204.81 171.61 206.08"
/>
<path stroke="#046266" vector-effect="non-scaling-stroke" d="
  M 171.61 206.08
  C 161.71 206.74 159.05 200.91 159.56 192.49
  A 0.54 0.54 0.0 0 0 158.66 192.06
  L 154.43 195.95"
/>
<path stroke="#818181" vector-effect="non-scaling-stroke" d="
  M 172.84 201.80
  C 181.69 198.96 188.28 191.08 194.04 185.07
  A 0.67 0.63 -21.4 0 0 194.23 184.67
  L 197.19 155.12
  Q 197.24 154.63 196.75 154.73
  Q 190.37 156.10 185.38 158.64"
/>
<path stroke="#82e0e4" vector-effect="non-scaling-stroke" d="
  M 223.03 215.39
  Q 221.28 230.58 225.04 245.85
  A 0.79 0.78 74.4 0 1 224.52 246.78
  L 162.37 267.10
  A 0.42 0.41 74.5 0 1 161.83 266.79
  Q 161.22 264.07 159.32 262.02
  Q 158.96 261.63 158.93 261.09
  Q 158.85 259.68 159.00 258.99
  Q 164.93 232.73 171.61 206.08"
/>
<path stroke="#046266" vector-effect="non-scaling-stroke" d="
  M 186.29 153.85
  Q 182.20 155.35 178.42 158.19
  Q 176.50 159.63 178.90 160.78
  A 1.43 1.42 46.3 0 0 180.03 160.81
  L 185.38 158.64"
/>
<path stroke="#82e0e4" vector-effect="non-scaling-stroke" d="
  M 185.38 158.64
  L 172.84 201.80"
/>
<path stroke="#046266" vector-effect="non-scaling-stroke" d="
  M 172.84 201.80
  C 161.58 204.31 162.03 191.91 165.26 185.74
  Q 165.90 184.52 167.80 185.08
  A 1.22 1.19 36.6 0 0 168.77 184.95
  Q 173.46 181.98 175.64 175.96
  C 176.42 173.81 177.38 171.08 175.12 169.56
  C 170.51 166.45 162.98 180.20 161.76 183.73
  Q 160.75 186.62 156.26 188.70"
/>
<path stroke="#818181" vector-effect="non-scaling-stroke" d="
  M 17.51 220.95
  C 16.91 215.24 17.59 209.83 18.02 204.10
  Q 20.31 173.74 22.53 143.38
  C 22.60 142.36 23.29 141.71 24.09 141.20
  A 0.93 0.91 -18.4 0 0 24.50 140.40
  L 24.20 131.41
  A 1.55 1.55 0.0 0 0 22.19 129.98
  C 20.87 130.40 20.01 132.04 19.79 133.47
  Q 18.56 141.40 17.70 152.75
  Q 15.50 181.75 13.33 210.75
  C 13.08 214.15 12.31 222.82 15.24 225.23
  Q 17.65 227.21 21.07 224.62
  C 32.27 216.10 46.19 207.11 60.51 206.02
  A 1.55 1.55 0.0 0 0 61.55 203.44
  C 59.25 200.88 53.24 202.53 50.51 203.54
  Q 33.36 209.83 18.64 221.43
  A 0.70 0.70 0.0 0 1 17.51 220.95"
/>
<path stroke="#818181" vector-effect="non-scaling-stroke" d="
  M 79.65 158.41
  A 3.00 3.00 0.0 0 0 76.65 155.41
  A 3.00 3.00 0.0 0 0 73.65 158.41
  A 3.00 3.00 0.0 0 0 76.65 161.41
  A 3.00 3.00 0.0 0 0 79.65 158.41"
/>
<path stroke="#818181" vector-effect="non-scaling-stroke" d="
  M 317.61 251.86
  A 0.64 0.64 0.0 0 0 316.97 251.22
  L 316.19 251.22
  A 0.64 0.64 0.0 0 0 315.55 251.86
  L 315.55 263.60
  A 0.64 0.64 0.0 0 0 316.19 264.24
  L 316.97 264.24
  A 0.64 0.64 0.0 0 0 317.61 263.60
  L 317.61 251.86"
/>
<path stroke="#818181" vector-effect="non-scaling-stroke" d="
  M 334.17 259.32
  C 336.30 261.30 336.99 264.86 340.75 264.49
  Q 341.92 264.37 341.77 263.15
  Q 341.71 262.66 341.22 262.57
  Q 338.29 262.08 337.02 259.37
  Q 336.80 258.91 337.28 258.72
  Q 341.06 257.25 339.64 253.20
  A 1.41 1.39 -86.8 0 0 338.95 252.42
  Q 335.45 250.67 331.57 251.50
  Q 331.00 251.62 331.00 252.21
  L 331.03 263.45
  A 1.20 1.19 46.2 0 0 333.42 263.50
  Q 333.50 261.55 333.37 259.70
  A 0.48 0.47 19.5 0 1 334.17 259.32"
/>
<path stroke="#818181" vector-effect="non-scaling-stroke" d="
  M 374.47 261.46
  Q 372.08 263.75 369.86 260.91
  Q 368.13 258.69 367.59 261.61
  A 1.43 1.41 -67.5 0 0 368.17 263.04
  Q 371.83 265.58 375.21 263.63
  C 376.76 262.74 377.47 261.00 376.80 259.36
  C 376.03 257.46 373.18 257.05 371.38 256.36
  A 1.60 1.60 0.0 0 1 372.08 253.27
  Q 374.10 253.42 375.53 254.99
  A 0.64 0.63 -42.8 0 0 376.43 255.02
  Q 376.82 254.65 376.85 254.09
  C 377.06 250.48 368.28 249.96 368.06 255.00
  C 367.92 258.17 372.00 258.92 374.25 260.01
  A 0.90 0.89 -53.8 0 1 374.47 261.46"
/>
<path stroke="#818181" vector-effect="non-scaling-stroke" d="
  M 392.23 261.46
  L 396.72 261.41
  Q 397.20 261.40 397.46 261.81
  C 398.11 262.85 398.50 264.98 400.22 264.33
  A 0.65 0.65 0.0 0 0 400.60 263.47
  L 395.86 251.96
  A 1.36 1.36 0.0 0 0 393.35 251.94
  L 388.40 263.51
  A 0.83 0.83 0.0 0 0 389.64 264.51
  Q 390.93 263.59 391.45 262.02
  A 0.83 0.82 -80.6 0 1 392.23 261.46"
/>
<path stroke="#818181" vector-effect="non-scaling-stroke" d="
  M 415.23 261.54
  Q 414.96 256.90 415.22 252.24
  Q 415.31 250.69 413.17 251.44
  Q 412.76 251.59 412.76 252.03
  L 412.75 263.69
  A 0.68 0.68 0.0 0 0 413.44 264.37
  L 420.33 264.26
  Q 420.91 264.25 420.95 263.67
  L 421.00 263.06
  Q 421.05 262.32 420.31 262.31
  L 415.97 262.25
  Q 415.27 262.25 415.23 261.54"
/>
<path stroke="#818181" vector-effect="non-scaling-stroke" d="
  M 437.2557 264.3878
  A 6.70 6.27 101.4 0 0 444.7263 259.0593
  A 6.70 6.27 101.4 0 0 439.9043 251.2522
  A 6.70 6.27 101.4 0 0 432.4337 256.5807
  A 6.70 6.27 101.4 0 0 437.2557 264.3878"
/>
<path stroke="#818181" vector-effect="non-scaling-stroke" d="
  M 465.64 259.51
  L 459.99 251.76
  A 1.28 1.28 0.0 0 0 457.68 252.51
  L 457.67 263.48
  A 1.12 1.12 0.0 0 0 459.65 264.19
  Q 460.21 263.50 460.04 261.98
  Q 459.71 259.16 459.92 256.20
  A 0.32 0.32 0.0 0 1 460.50 256.03
  L 466.06 263.83
  A 1.35 1.34 27.4 0 0 468.50 263.06
  L 468.51 251.82
  Q 468.51 251.11 467.81 251.26
  L 466.80 251.48
  Q 466.18 251.61 466.19 252.25
  L 466.27 259.30
  Q 466.28 260.39 465.64 259.51"
/>
<path stroke="#818181" vector-effect="non-scaling-stroke" d="
  M 382.52 179.47
  L 383.97 173.38
  A 0.12 0.12 0.0 0 0 383.88 173.23
  L 383.82 173.22
  A 3.12 1.92 -76.6 0 0 381.23 175.81
  L 381.17 176.06
  A 3.12 1.92 -76.6 0 0 382.31 179.54
  L 382.37 179.56
  A 0.12 0.12 0.0 0 0 382.52 179.47"
/>
<path stroke="#818181" vector-effect="non-scaling-stroke" d="
  M 417.9542 181.0398
  A 3.60 0.50 125.8 0 0 420.4655 178.4125
  A 3.60 0.50 125.8 0 0 422.1658 175.2002
  A 3.60 0.50 125.8 0 0 419.6545 177.8275
  A 3.60 0.50 125.8 0 0 417.9542 181.0398"
/>
<path stroke="#818181" vector-effect="non-scaling-stroke" d="
  M 360.42 182.70
  L 358.58 181.96
  A 0.43 0.43 0.0 0 0 358.02 182.20
  L 357.97 182.34
  A 11.60 1.36 -68.0 0 0 354.88 193.60
  L 354.99 193.65
  A 11.60 1.36 -68.0 0 0 360.60 183.40
  L 360.66 183.26
  A 0.43 0.43 0.0 0 0 360.42 182.70"
/>
<path stroke="#818181" vector-effect="non-scaling-stroke" d="
  M 288.57 206.70
  Q 289.04 205.32 287.85 206.16
  C 281.52 210.64 270.50 221.62 270.60 230.29
  A 0.66 0.65 -8.2 0 0 271.44 230.91
  C 279.09 228.72 286.11 213.86 288.57 206.70"
/>
<path stroke="#818181" vector-effect="non-scaling-stroke" d="
  M 467.34 214.32
  Q 468.29 212.17 468.95 211.10
  A 0.45 0.45 0.0 0 0 468.27 210.52
  C 462.07 215.82 452.86 224.08 449.79 231.69
  A 1.03 1.02 -89.6 0 0 451.11 233.03
  C 458.43 230.18 464.29 221.19 467.34 214.32"
/>
<path stroke="#818181" vector-effect="non-scaling-stroke" d="
  M 223.57 138.86
  C 221.83 139.73 219.43 142.21 218.90 144.07
  Q 218.75 144.57 219.27 144.47
  L 224.56 143.39
  Q 225.32 143.23 225.15 142.47
  L 224.42 139.26
  A 0.60 0.60 0.0 0 0 223.57 138.86"
/>
<path stroke="#818181" vector-effect="non-scaling-stroke" d="
  M 138.81 167.55
  C 142.65 160.60 149.39 148.20 148.88 140.20
  A 0.42 0.42 0.0 0 0 148.11 139.99
  C 142.97 147.53 140.06 158.09 138.48 167.43
  A 0.18 0.18 0.0 0 0 138.81 167.55"
/>
<path stroke="#818181" vector-effect="non-scaling-stroke" d="
  M 211.05 172.76
  C 216.87 165.75 221.60 157.07 224.19 148.27
  Q 224.34 147.75 223.80 147.81
  Q 220.87 148.12 217.97 148.67
  Q 216.20 149.00 215.68 150.49
  Q 211.97 161.10 210.44 172.49
  A 0.35 0.35 0.0 0 0 211.05 172.76"
/>
<path stroke="#046266" vector-effect="non-scaling-stroke" d="
  M 168.0837 180.8198
  A 3.29 0.57 123.3 0 0 170.3664 178.3829
  A 3.29 0.57 123.3 0 0 171.6963 175.3202
  A 3.29 0.57 123.3 0 0 169.4136 177.7571
  A 3.29 0.57 123.3 0 0 168.0837 180.8198"
/>
<path stroke="#818181" vector-effect="non-scaling-stroke" d="
  M 138.1289 216.2213
  A 5.29 0.63 122.1 0 0 141.4737 212.0748
  A 5.29 0.63 122.1 0 0 143.7511 207.2587
  A 5.29 0.63 122.1 0 0 140.4063 211.4052
  A 5.29 0.63 122.1 0 0 138.1289 216.2213"
/>
<path stroke="#818181" vector-effect="non-scaling-stroke" d="
  M 90.36 232.99
  C 98.89 230.66 104.99 218.22 108.69 210.44
  A 0.33 0.32 82.6 0 0 108.19 210.05
  C 101.41 216.02 93.20 223.40 89.22 231.61
  A 0.98 0.98 0.0 0 0 90.36 232.99"
/>
<path stroke="#82e0e4" vector-effect="non-scaling-stroke" d="
  M 267.89 251.82
  L 250.94 257.87
  A 0.27 0.27 0.0 0 0 250.97 258.38
  Q 260.14 260.34 267.96 256.22"
/>
<path stroke="#046266" vector-effect="non-scaling-stroke" d="
  M 267.96 256.22
  Q 267.99 259.10 268.10 262.92
  Q 268.12 263.67 268.38 264.02
  Q 268.74 264.48 269.38 264.43
  A 0.90 0.90 0.0 0 0 270.23 263.54
  L 270.27 259.47
  A 0.77 0.76 -89.6 0 1 271.03 258.71
  L 275.97 258.73
  A 0.68 0.68 0.0 0 1 276.64 259.41
  Q 276.64 261.21 276.57 262.99
  Q 276.55 263.65 276.80 263.96
  Q 277.22 264.46 278.02 264.21
  Q 278.68 264.01 278.69 263.32
  L 278.85 251.79
  A 0.67 0.67 0.0 0 0 277.96 251.15
  L 277.21 251.40
  Q 276.60 251.61 276.62 252.26
  L 276.75 256.01
  A 0.74 0.73 0.0 0 1 275.98 256.77
  L 271.54 256.59
  Q 270.79 256.55 270.65 255.81
  L 269.94 251.74
  Q 269.87 251.36 269.48 251.29
  Q 268.61 251.13 267.89 251.82"
/>
<path stroke="#818181" vector-effect="non-scaling-stroke" d="
  M 267.96 256.22
  L 267.89 251.82"
/>
<path stroke="#818181" vector-effect="non-scaling-stroke" d="
  M 295.42 258.69
  A 0.56 0.56 0.0 0 0 295.95 259.44
  L 298.35 259.44
  A 0.56 0.56 0.0 0 0 298.88 258.69
  L 297.67 255.47
  A 0.56 0.56 0.0 0 0 296.63 255.47
  L 295.42 258.69"
/>
<path stroke="#818181" vector-effect="non-scaling-stroke" d="
  M 333.32 254.05
  L 333.32 256.31
  A 0.79 0.79 0.0 0 0 334.10 257.10
  L 334.26 257.11
  A 3.51 1.80 0.2 0 0 337.78 255.32
  L 337.78 255.08
  A 3.51 1.80 0.2 0 0 334.28 253.27
  L 334.12 253.26
  A 0.79 0.79 0.0 0 0 333.32 254.05"
/>
<path stroke="#818181" vector-effect="non-scaling-stroke" d="
  M 392.66 258.76
  A 0.48 0.48 0.0 0 0 393.10 259.43
  L 395.93 259.45
  A 0.48 0.48 0.0 0 0 396.38 258.79
  L 394.99 255.27
  A 0.48 0.48 0.0 0 0 394.10 255.27
  L 392.66 258.76"
/>
<path stroke="#818181" vector-effect="non-scaling-stroke" d="
  M 437.6018 262.2609
  A 4.53 3.86 102.6 0 0 442.3570 258.6820
  A 4.53 3.86 102.6 0 0 439.5782 253.4191
  A 4.53 3.86 102.6 0 0 434.8230 256.9980
  A 4.53 3.86 102.6 0 0 437.6018 262.2609"
/>
</g>
<path fill="#ffffff" d="
  M 0.00 0.00
  L 499.00 0.00
  L 499.00 319.00
  L 0.00 319.00
  L 0.00 0.00
  Z
  M 317.28 176.89
  L 314.26 184.28
  A 0.68 0.64 -6.4 0 1 313.98 184.61
  L 296.46 194.80
  A 0.36 0.36 0.0 0 1 295.92 194.43
  C 298.66 178.55 297.98 164.88 295.43 148.09
  Q 297.51 142.50 297.73 136.83
  Q 308.29 133.28 318.46 134.83
  A 1.16 1.16 0.0 0 0 319.72 133.26
  C 317.64 127.91 303.43 130.98 298.85 132.31
  Q 299.88 125.12 297.86 119.22
  C 293.83 107.47 282.44 109.99 274.86 115.87
  C 260.44 127.04 248.67 144.54 240.24 160.50
  Q 228.36 182.98 223.93 206.07
  Q 223.82 193.31 227.58 181.03
  Q 228.22 178.95 227.45 175.56
  Q 227.34 175.10 226.97 174.82
  C 221.74 170.90 211.23 189.68 209.26 193.42
  A 0.39 0.39 0.0 0 1 208.52 193.21
  L 209.61 178.79
  A 1.11 1.11 0.0 0 1 210.10 177.95
  C 219.31 171.93 225.75 157.68 228.71 147.34
  A 0.62 0.60 -79.8 0 1 229.33 146.90
  L 234.29 147.18
  A 1.55 1.55 0.0 0 0 235.42 144.48
  Q 233.01 142.32 229.73 142.79
  A 0.61 0.61 0.0 0 1 229.03 142.23
  C 228.91 140.78 228.87 139.34 228.33 138.12
  C 226.12 133.12 221.35 134.47 218.33 137.73
  Q 215.31 140.97 213.69 145.31
  A 1.01 1.00 -86.1 0 1 212.97 145.94
  L 205.08 147.85
  Q 204.38 148.02 204.48 147.30
  L 205.11 143.01
  A 1.56 1.55 -80.2 0 0 203.88 141.26
  C 200.63 140.59 199.31 147.01 198.52 149.33
  Q 198.35 149.82 197.86 149.98
  L 186.29 153.85
  C 187.17 151.70 188.47 149.46 189.10 147.35
  Q 204.98 94.50 226.86 43.85
  C 228.56 39.90 234.06 29.27 230.14 24.99
  C 224.56 18.88 217.76 26.58 215.28 31.08
  Q 198.45 61.56 185.51 97.50
  Q 170.23 139.91 157.45 183.15
  Q 156.48 186.41 156.26 188.70
  L 151.54 192.64
  Q 150.99 193.10 150.91 192.39
  C 149.04 176.47 138.87 186.24 135.37 193.19
  A 0.35 0.35 0.0 0 1 134.71 193.00
  C 135.11 187.94 135.18 180.27 137.91 176.19
  C 144.73 166.03 152.59 152.56 152.97 140.05
  C 153.08 136.32 150.33 133.21 146.70 135.83
  C 142.99 138.50 140.19 145.40 138.69 149.97
  Q 134.61 162.43 132.63 175.40
  C 132.43 176.76 131.79 177.30 130.78 178.06
  A 0.86 0.85 -25.9 0 0 130.46 178.98
  C 131.15 181.36 133.24 183.38 130.46 185.58
  Q 122.43 191.95 114.92 198.68
  A 0.56 0.55 61.9 0 1 114.02 198.40
  Q 111.56 188.93 101.22 189.56
  Q 99.58 189.66 97.78 189.65
  Q 97.06 189.64 97.53 189.10
  C 99.69 186.57 112.43 173.79 105.97 170.92
  C 100.80 168.62 88.88 179.23 85.82 182.88
  Q 84.35 184.63 80.96 190.65
  Q 77.69 196.46 73.20 201.17
  A 1.82 1.82 0.0 0 1 70.27 200.77
  C 66.31 193.23 69.86 178.30 73.26 170.93
  A 1.58 1.58 0.0 0 0 71.87 168.69
  C 67.45 168.57 64.94 185.42 64.73 188.65
  C 64.39 193.84 64.31 197.66 66.37 201.94
  C 72.35 214.33 83.40 194.80 85.82 190.41
  Q 88.66 185.25 90.58 183.25
  Q 95.69 177.93 102.79 175.06
  A 0.35 0.35 0.0 0 1 103.21 175.58
  Q 97.72 183.43 90.10 190.88
  Q 88.84 192.12 88.75 194.07
  A 0.97 0.96 -71.7 0 0 89.16 194.90
  Q 90.76 196.01 92.77 195.33
  C 97.63 193.70 107.40 191.30 109.58 197.91
  C 110.30 200.10 111.09 201.92 109.43 203.41
  C 104.01 208.27 79.90 228.48 86.32 235.55
  C 90.10 239.71 97.20 234.30 99.87 231.63
  Q 111.00 220.51 114.17 204.98
  A 1.25 1.21 -15.7 0 1 114.57 204.29
  L 129.98 191.03
  Q 130.57 190.53 130.50 191.29
  Q 129.84 199.05 128.98 206.76
  Q 128.75 208.80 130.04 209.67
  A 1.91 1.91 0.0 0 0 132.90 208.76
  C 135.11 202.79 139.14 191.94 144.47 188.31
  A 1.11 1.11 0.0 0 1 146.18 188.98
  C 147.14 193.33 147.16 196.49 144.05 199.98
  C 140.76 203.68 130.14 215.99 134.66 221.09
  A 1.32 1.29 71.5 0 0 135.50 221.52
  C 143.62 222.27 148.63 206.67 150.14 200.71
  Q 150.70 198.50 154.43 195.95
  Q 148.81 215.50 145.17 235.51
  C 142.44 250.50 140.55 260.96 142.41 273.86
  A 2.78 2.77 75.8 0 1 140.64 276.85
  C 131.62 280.24 104.78 293.86 105.74 305.50
  C 106.24 311.64 111.94 316.50 118.08 313.80
  Q 119.72 313.08 124.29 308.98
  Q 127.95 305.68 131.82 303.54
  Q 151.34 292.68 174.18 284.74
  Q 203.61 274.51 233.10 264.37
  Q 233.35 264.29 233.53 264.48
  Q 249.59 281.59 272.34 272.57
  Q 283.91 267.98 293.94 256.21
  L 291.01 263.53
  A 0.72 0.72 0.0 0 0 291.46 264.49
  Q 291.89 264.62 292.37 264.43
  Q 292.72 264.29 293.00 263.85
  Q 293.65 262.87 294.32 261.84
  A 1.00 0.99 -73.6 0 1 295.13 261.39
  L 298.88 261.32
  A 1.21 1.20 69.3 0 1 299.82 261.75
  Q 300.73 262.83 301.42 264.07
  Q 301.95 265.01 303.05 264.12
  Q 303.40 263.83 303.23 263.41
  L 298.48 251.80
  Q 318.41 225.94 330.46 194.46
  Q 330.27 201.29 332.84 205.51
  C 337.32 212.86 347.85 198.30 349.89 195.47
  Q 351.18 193.70 351.14 195.89
  C 351.10 198.07 351.75 200.73 354.45 200.50
  C 357.43 200.24 361.38 191.82 363.40 187.85
  Q 363.86 186.94 363.93 187.96
  C 364.16 191.23 362.89 208.56 370.93 206.13
  C 375.73 204.68 381.19 192.87 382.94 188.40
  Q 383.17 187.82 383.65 188.21
  C 390.93 194.05 388.86 203.34 388.99 213.02
  Q 389.02 215.37 391.80 218.44
  Q 392.13 218.80 392.61 218.89
  Q 396.83 219.64 399.59 216.03
  Q 405.45 208.37 409.11 199.58
  A 0.58 0.58 0.0 0 1 410.18 199.60
  C 414.82 211.74 430.15 204.73 436.45 198.68
  Q 440.09 195.17 443.79 191.74
  Q 445.72 189.95 448.63 186.22
  Q 454.42 178.82 463.36 174.96
  A 0.38 0.38 0.0 0 1 463.81 175.53
  Q 457.79 183.69 450.58 191.08
  Q 449.87 191.79 449.57 192.51
  Q 449.04 193.77 449.34 194.30
  Q 450.44 196.24 452.56 195.55
  C 459.03 193.43 471.77 190.48 470.64 202.34
  Q 470.59 202.83 470.23 203.15
  C 464.05 208.58 445.67 224.15 445.70 232.55
  C 445.72 237.22 450.62 237.84 454.08 236.07
  C 464.81 230.59 472.24 216.47 474.71 205.17
  Q 474.81 204.68 475.19 204.34
  Q 484.63 195.79 494.53 187.77
  Q 496.70 186.02 494.40 184.73
  A 2.49 2.48 39.6 0 0 491.59 184.99
  L 475.30 198.60
  A 0.48 0.48 0.0 0 1 474.53 198.34
  C 472.66 190.11 465.65 188.93 458.23 189.72
  Q 457.52 189.79 457.99 189.25
  C 460.65 186.16 470.69 175.68 467.96 171.98
  C 463.94 166.54 450.77 178.33 447.66 181.52
  C 441.49 187.85 435.69 194.85 428.19 199.66
  C 424.66 201.93 418.00 203.73 414.97 199.87
  C 412.22 196.36 413.84 189.62 415.47 185.68
  Q 415.65 185.23 416.14 185.22
  C 417.82 185.19 419.16 185.04 420.49 183.91
  C 423.15 181.67 429.73 172.27 425.47 169.53
  C 420.47 166.30 413.45 180.07 411.92 183.64
  C 409.62 188.99 399.72 213.03 394.62 214.94
  A 0.63 0.63 0.0 0 1 393.81 214.56
  C 392.27 210.13 393.09 203.65 393.03 198.90
  C 392.95 191.97 390.08 188.47 385.07 183.61
  A 0.77 0.76 34.8 0 1 384.91 182.74
  C 386.43 179.41 389.54 172.52 385.71 169.60
  Q 382.67 167.28 379.62 170.70
  Q 373.47 177.60 380.52 184.29
  Q 380.89 184.65 380.63 185.10
  L 371.23 201.47
  A 1.12 1.12 0.0 0 1 369.27 201.44
  C 366.54 196.33 368.66 182.28 369.81 176.52
  Q 370.33 173.88 368.38 172.92
  A 1.63 1.63 0.0 0 0 366.23 173.61
  L 363.12 179.44
  A 0.44 0.43 37.2 0 1 362.42 179.53
  C 357.73 174.58 354.68 180.85 352.88 184.13
  Q 350.35 188.73 340.62 200.36
  Q 339.05 202.23 336.61 203.14
  A 0.63 0.62 -19.1 0 1 335.79 202.75
  C 333.15 194.61 335.67 181.29 337.56 174.05
  Q 339.31 170.11 340.51 166.00
  Q 355.10 116.35 366.04 65.78
  Q 369.58 49.41 368.17 29.67
  Q 367.62 21.96 365.58 18.20
  C 358.74 5.62 343.91 10.49 333.75 14.56
  Q 308.43 24.70 285.31 39.13
  C 281.11 41.75 278.50 43.13 276.58 46.54
  C 273.11 52.68 277.28 62.27 285.40 58.55
  A 1.70 1.69 -86.0 0 0 286.13 57.91
  Q 287.57 55.61 289.26 54.55
  Q 301.44 46.97 319.01 37.78
  C 328.67 32.73 339.36 27.80 350.25 26.27
  A 0.84 0.84 0.0 0 1 351.21 27.12
  C 350.79 46.16 346.27 64.08 341.95 82.46
  Q 332.40 123.11 321.73 163.48
  Q 320.92 166.55 317.28 176.89
  Z
  M 17.51 220.95
  C 16.91 215.24 17.59 209.83 18.02 204.10
  Q 20.31 173.74 22.53 143.38
  C 22.60 142.36 23.29 141.71 24.09 141.20
  A 0.93 0.91 -18.4 0 0 24.50 140.40
  L 24.20 131.41
  A 1.55 1.55 0.0 0 0 22.19 129.98
  C 20.87 130.40 20.01 132.04 19.79 133.47
  Q 18.56 141.40 17.70 152.75
  Q 15.50 181.75 13.33 210.75
  C 13.08 214.15 12.31 222.82 15.24 225.23
  Q 17.65 227.21 21.07 224.62
  C 32.27 216.10 46.19 207.11 60.51 206.02
  A 1.55 1.55 0.0 0 0 61.55 203.44
  C 59.25 200.88 53.24 202.53 50.51 203.54
  Q 33.36 209.83 18.64 221.43
  A 0.70 0.70 0.0 0 1 17.51 220.95
  Z
  M 79.65 158.41
  A 3.00 3.00 0.0 0 0 76.65 155.41
  A 3.00 3.00 0.0 0 0 73.65 158.41
  A 3.00 3.00 0.0 0 0 76.65 161.41
  A 3.00 3.00 0.0 0 0 79.65 158.41
  Z
  M 317.61 251.86
  A 0.64 0.64 0.0 0 0 316.97 251.22
  L 316.19 251.22
  A 0.64 0.64 0.0 0 0 315.55 251.86
  L 315.55 263.60
  A 0.64 0.64 0.0 0 0 316.19 264.24
  L 316.97 264.24
  A 0.64 0.64 0.0 0 0 317.61 263.60
  L 317.61 251.86
  Z
  M 334.17 259.32
  C 336.30 261.30 336.99 264.86 340.75 264.49
  Q 341.92 264.37 341.77 263.15
  Q 341.71 262.66 341.22 262.57
  Q 338.29 262.08 337.02 259.37
  Q 336.80 258.91 337.28 258.72
  Q 341.06 257.25 339.64 253.20
  A 1.41 1.39 -86.8 0 0 338.95 252.42
  Q 335.45 250.67 331.57 251.50
  Q 331.00 251.62 331.00 252.21
  L 331.03 263.45
  A 1.20 1.19 46.2 0 0 333.42 263.50
  Q 333.50 261.55 333.37 259.70
  A 0.48 0.47 19.5 0 1 334.17 259.32
  Z
  M 374.47 261.46
  Q 372.08 263.75 369.86 260.91
  Q 368.13 258.69 367.59 261.61
  A 1.43 1.41 -67.5 0 0 368.17 263.04
  Q 371.83 265.58 375.21 263.63
  C 376.76 262.74 377.47 261.00 376.80 259.36
  C 376.03 257.46 373.18 257.05 371.38 256.36
  A 1.60 1.60 0.0 0 1 372.08 253.27
  Q 374.10 253.42 375.53 254.99
  A 0.64 0.63 -42.8 0 0 376.43 255.02
  Q 376.82 254.65 376.85 254.09
  C 377.06 250.48 368.28 249.96 368.06 255.00
  C 367.92 258.17 372.00 258.92 374.25 260.01
  A 0.90 0.89 -53.8 0 1 374.47 261.46
  Z
  M 392.23 261.46
  L 396.72 261.41
  Q 397.20 261.40 397.46 261.81
  C 398.11 262.85 398.50 264.98 400.22 264.33
  A 0.65 0.65 0.0 0 0 400.60 263.47
  L 395.86 251.96
  A 1.36 1.36 0.0 0 0 393.35 251.94
  L 388.40 263.51
  A 0.83 0.83 0.0 0 0 389.64 264.51
  Q 390.93 263.59 391.45 262.02
  A 0.83 0.82 -80.6 0 1 392.23 261.46
  Z
  M 415.23 261.54
  Q 414.96 256.90 415.22 252.24
  Q 415.31 250.69 413.17 251.44
  Q 412.76 251.59 412.76 252.03
  L 412.75 263.69
  A 0.68 0.68 0.0 0 0 413.44 264.37
  L 420.33 264.26
  Q 420.91 264.25 420.95 263.67
  L 421.00 263.06
  Q 421.05 262.32 420.31 262.31
  L 415.97 262.25
  Q 415.27 262.25 415.23 261.54
  Z
  M 437.2557 264.3878
  A 6.70 6.27 101.4 0 0 444.7263 259.0593
  A 6.70 6.27 101.4 0 0 439.9043 251.2522
  A 6.70 6.27 101.4 0 0 432.4337 256.5807
  A 6.70 6.27 101.4 0 0 437.2557 264.3878
  Z
  M 465.64 259.51
  L 459.99 251.76
  A 1.28 1.28 0.0 0 0 457.68 252.51
  L 457.67 263.48
  A 1.12 1.12 0.0 0 0 459.65 264.19
  Q 460.21 263.50 460.04 261.98
  Q 459.71 259.16 459.92 256.20
  A 0.32 0.32 0.0 0 1 460.50 256.03
  L 466.06 263.83
  A 1.35 1.34 27.4 0 0 468.50 263.06
  L 468.51 251.82
  Q 468.51 251.11 467.81 251.26
  L 466.80 251.48
  Q 466.18 251.61 466.19 252.25
  L 466.27 259.30
  Q 466.28 260.39 465.64 259.51
  Z"
/>
<path fill="#05c1c9" d="
  M 337.56 174.05
  C 337.27 171.57 333.94 170.90 332.65 173.17
  Q 326.28 184.32 319.32 195.11
  Q 318.35 196.63 317.23 197.74
  A 0.62 0.61 -21.8 0 1 316.18 197.29
  C 316.31 191.68 317.27 183.09 321.11 178.71
  A 1.56 1.55 -29.8 0 0 321.48 177.37
  Q 320.76 173.68 317.28 176.89
  Q 320.92 166.55 321.73 163.48
  Q 332.40 123.11 341.95 82.46
  C 346.27 64.08 350.79 46.16 351.21 27.12
  A 0.84 0.84 0.0 0 0 350.25 26.27
  C 339.36 27.80 328.67 32.73 319.01 37.78
  Q 301.44 46.97 289.26 54.55
  Q 287.57 55.61 286.13 57.91
  A 1.70 1.69 -86.0 0 1 285.40 58.55
  C 277.28 62.27 273.11 52.68 276.58 46.54
  C 278.50 43.13 281.11 41.75 285.31 39.13
  Q 308.43 24.70 333.75 14.56
  C 343.91 10.49 358.74 5.62 365.58 18.20
  Q 367.62 21.96 368.17 29.67
  Q 369.58 49.41 366.04 65.78
  Q 355.10 116.35 340.51 166.00
  Q 339.31 170.11 337.56 174.05
  Z"
/>
<path fill="#05c1c9" d="
  M 186.29 153.85
  Q 182.20 155.35 178.42 158.19
  Q 176.50 159.63 178.90 160.78
  A 1.43 1.42 46.3 0 0 180.03 160.81
  L 185.38 158.64
  L 172.84 201.80
  C 161.58 204.31 162.03 191.91 165.26 185.74
  Q 165.90 184.52 167.80 185.08
  A 1.22 1.19 36.6 0 0 168.77 184.95
  Q 173.46 181.98 175.64 175.96
  C 176.42 173.81 177.38 171.08 175.12 169.56
  C 170.51 166.45 162.98 180.20 161.76 183.73
  Q 160.75 186.62 156.26 188.70
  Q 156.48 186.41 157.45 183.15
  Q 170.23 139.91 185.51 97.50
  Q 198.45 61.56 215.28 31.08
  C 217.76 26.58 224.56 18.88 230.14 24.99
  C 234.06 29.27 228.56 39.90 226.86 43.85
  Q 204.98 94.50 189.10 147.35
  C 188.47 149.46 187.17 151.70 186.29 153.85
  Z"
/>
<path fill="#05c1c9" d="
  M 298.85 132.31
  L 282.57 137.43
  L 284.68 127.07
  A 0.95 0.95 0.0 0 0 283.13 126.16
  Q 265.21 141.54 254.45 161.44
  Q 246.41 176.30 243.19 185.80
  Q 243.52 184.77 241.78 184.70
  C 240.21 184.64 239.25 185.90 238.72 187.20
  Q 233.77 199.30 225.81 210.12
  A 0.83 0.83 0.0 0 1 224.32 209.72
  L 223.93 206.07
  Q 228.36 182.98 240.24 160.50
  C 248.67 144.54 260.44 127.04 274.86 115.87
  C 282.44 109.99 293.83 107.47 297.86 119.22
  Q 299.88 125.12 298.85 132.31
  Z"
/>
<path fill="#ffffff" d="
  M 282.57 137.43
  C 279.09 138.74 272.39 141.31 270.23 144.43
  C 269.28 145.80 269.81 147.28 271.54 147.42
  A 1.26 1.24 -61.5 0 0 272.42 147.15
  Q 276.40 143.97 281.31 142.12
  Q 271.11 173.93 260.79 205.45
  C 259.08 210.70 257.78 213.96 258.34 218.01
  C 258.95 222.41 263.45 224.49 267.08 221.69
  Q 269.17 220.08 270.41 217.39
  Q 284.01 187.85 292.74 158.30
  Q 294.97 177.93 290.99 197.90
  A 2.20 2.17 78.1 0 1 290.12 199.25
  C 280.76 205.92 271.66 214.18 267.28 225.18
  C 264.10 233.13 270.08 238.11 276.97 232.56
  C 285.82 225.42 290.91 213.45 294.21 202.85
  C 295.40 199.00 308.86 192.12 312.23 190.30
  C 303.64 211.80 294.06 230.18 279.86 246.45
  A 0.31 0.31 0.0 0 1 279.32 246.19
  Q 280.37 239.70 275.09 237.03
  C 272.96 235.96 268.27 235.46 266.21 235.80
  Q 252.31 238.07 238.68 242.64
  Q 238.12 242.83 237.97 242.26
  Q 233.92 226.77 236.36 211.02
  Q 237.35 204.61 238.45 197.91
  Q 241.82 192.03 243.19 185.80
  Q 246.41 176.30 254.45 161.44
  Q 265.21 141.54 283.13 126.16
  A 0.95 0.95 0.0 0 1 284.68 127.07
  L 282.57 137.43
  Z"
/>
<path fill="#030303" d="
  M 17.51 220.95
  A 0.70 0.70 0.0 0 0 18.64 221.43
  Q 33.36 209.83 50.51 203.54
  C 53.24 202.53 59.25 200.88 61.55 203.44
  A 1.55 1.55 0.0 0 1 60.51 206.02
  C 46.19 207.11 32.27 216.10 21.07 224.62
  Q 17.65 227.21 15.24 225.23
  C 12.31 222.82 13.08 214.15 13.33 210.75
  Q 15.50 181.75 17.70 152.75
  Q 18.56 141.40 19.79 133.47
  C 20.01 132.04 20.87 130.40 22.19 129.98
  A 1.55 1.55 0.0 0 1 24.20 131.41
  L 24.50 140.40
  A 0.93 0.91 -18.4 0 1 24.09 141.20
  C 23.29 141.71 22.60 142.36 22.53 143.38
  Q 20.31 173.74 18.02 204.10
  C 17.59 209.83 16.91 215.24 17.51 220.95
  Z"
/>
<path fill="#030303" d="
  M 297.73 136.83
  Q 295.47 136.60 293.64 137.93
  A 0.83 0.83 0.0 0 0 293.32 138.78
  L 295.43 148.09
  C 297.98 164.88 298.66 178.55 295.92 194.43
  A 0.36 0.36 0.0 0 0 296.46 194.80
  L 313.98 184.61
  A 0.68 0.64 -6.4 0 0 314.26 184.28
  L 317.28 176.89
  Q 320.76 173.68 321.48 177.37
  A 1.56 1.55 -29.8 0 1 321.11 178.71
  C 317.27 183.09 316.31 191.68 316.18 197.29
  A 0.62 0.61 -21.8 0 0 317.23 197.74
  Q 318.35 196.63 319.32 195.11
  Q 326.28 184.32 332.65 173.17
  C 333.94 170.90 337.27 171.57 337.56 174.05
  C 335.67 181.29 333.15 194.61 335.79 202.75
  A 0.63 0.62 -19.1 0 0 336.61 203.14
  Q 339.05 202.23 340.62 200.36
  Q 350.35 188.73 352.88 184.13
  C 354.68 180.85 357.73 174.58 362.42 179.53
  A 0.44 0.43 37.2 0 0 363.12 179.44
  L 366.23 173.61
  A 1.63 1.63 0.0 0 1 368.38 172.92
  Q 370.33 173.88 369.81 176.52
  C 368.66 182.28 366.54 196.33 369.27 201.44
  A 1.12 1.12 0.0 0 0 371.23 201.47
  L 380.63 185.10
  Q 380.89 184.65 380.52 184.29
  Q 373.47 177.60 379.62 170.70
  Q 382.67 167.28 385.71 169.60
  C 389.54 172.52 386.43 179.41 384.91 182.74
  A 0.77 0.76 34.8 0 0 385.07 183.61
  C 390.08 188.47 392.95 191.97 393.03 198.90
  C 393.09 203.65 392.27 210.13 393.81 214.56
  A 0.63 0.63 0.0 0 0 394.62 214.94
  C 399.72 213.03 409.62 188.99 411.92 183.64
  C 413.45 180.07 420.47 166.30 425.47 169.53
  C 429.73 172.27 423.15 181.67 420.49 183.91
  C 419.16 185.04 417.82 185.19 416.14 185.22
  Q 415.65 185.23 415.47 185.68
  C 413.84 189.62 412.22 196.36 414.97 199.87
  C 418.00 203.73 424.66 201.93 428.19 199.66
  C 435.69 194.85 441.49 187.85 447.66 181.52
  C 450.77 178.33 463.94 166.54 467.96 171.98
  C 470.69 175.68 460.65 186.16 457.99 189.25
  Q 457.52 189.79 458.23 189.72
  C 465.65 188.93 472.66 190.11 474.53 198.34
  A 0.48 0.48 0.0 0 0 475.30 198.60
  L 491.59 184.99
  A 2.49 2.48 39.6 0 1 494.40 184.73
  Q 496.70 186.02 494.53 187.77
  Q 484.63 195.79 475.19 204.34
  Q 474.81 204.68 474.71 205.17
  C 472.24 216.47 464.81 230.59 454.08 236.07
  C 450.62 237.84 445.72 237.22 445.70 232.55
  C 445.67 224.15 464.05 208.58 470.23 203.15
  Q 470.59 202.83 470.64 202.34
  C 471.77 190.48 459.03 193.43 452.56 195.55
  Q 450.44 196.24 449.34 194.30
  Q 449.04 193.77 449.57 192.51
  Q 449.87 191.79 450.58 191.08
  Q 457.79 183.69 463.81 175.53
  A 0.38 0.38 0.0 0 0 463.36 174.96
  Q 454.42 178.82 448.63 186.22
  Q 445.72 189.95 443.79 191.74
  Q 440.09 195.17 436.45 198.68
  C 430.15 204.73 414.82 211.74 410.18 199.60
  A 0.58 0.58 0.0 0 0 409.11 199.58
  Q 405.45 208.37 399.59 216.03
  Q 396.83 219.64 392.61 218.89
  Q 392.13 218.80 391.80 218.44
  Q 389.02 215.37 388.99 213.02
  C 388.86 203.34 390.93 194.05 383.65 188.21
  Q 383.17 187.82 382.94 188.40
  C 381.19 192.87 375.73 204.68 370.93 206.13
  C 362.89 208.56 364.16 191.23 363.93 187.96
  Q 363.86 186.94 363.40 187.85
  C 361.38 191.82 357.43 200.24 354.45 200.50
  C 351.75 200.73 351.10 198.07 351.14 195.89
  Q 351.18 193.70 349.89 195.47
  C 347.85 198.30 337.32 212.86 332.84 205.51
  Q 330.27 201.29 330.46 194.46
  L 331.02 185.49
  A 0.37 0.37 0.0 0 0 330.34 185.28
  C 327.02 190.70 322.70 199.33 317.36 202.80
  A 2.55 2.54 -34.7 0 1 313.93 202.18
  Q 311.15 198.41 312.91 193.52
  Q 313.43 192.11 312.23 190.30
  C 308.86 192.12 295.40 199.00 294.21 202.85
  C 290.91 213.45 285.82 225.42 276.97 232.56
  C 270.08 238.11 264.10 233.13 267.28 225.18
  C 271.66 214.18 280.76 205.92 290.12 199.25
  A 2.20 2.17 78.1 0 0 290.99 197.90
  Q 294.97 177.93 292.74 158.30
  L 289.92 140.60
  Q 289.70 139.23 288.39 139.68
  L 281.31 142.12
  Q 276.40 143.97 272.42 147.15
  A 1.26 1.24 -61.5 0 1 271.54 147.42
  C 269.81 147.28 269.28 145.80 270.23 144.43
  C 272.39 141.31 279.09 138.74 282.57 137.43
  L 298.85 132.31
  C 303.43 130.98 317.64 127.91 319.72 133.26
  A 1.16 1.16 0.0 0 1 318.46 134.83
  Q 308.29 133.28 297.73 136.83
  Z
  M 382.52 179.47
  L 383.97 173.38
  A 0.12 0.12 0.0 0 0 383.88 173.23
  L 383.82 173.22
  A 3.12 1.92 -76.6 0 0 381.23 175.81
  L 381.17 176.06
  A 3.12 1.92 -76.6 0 0 382.31 179.54
  L 382.37 179.56
  A 0.12 0.12 0.0 0 0 382.52 179.47
  Z
  M 417.9542 181.0398
  A 3.60 0.50 125.8 0 0 420.4655 178.4125
  A 3.60 0.50 125.8 0 0 422.1658 175.2002
  A 3.60 0.50 125.8 0 0 419.6545 177.8275
  A 3.60 0.50 125.8 0 0 417.9542 181.0398
  Z
  M 360.42 182.70
  L 358.58 181.96
  A 0.43 0.43 0.0 0 0 358.02 182.20
  L 357.97 182.34
  A 11.60 1.36 -68.0 0 0 354.88 193.60
  L 354.99 193.65
  A 11.60 1.36 -68.0 0 0 360.60 183.40
  L 360.66 183.26
  A 0.43 0.43 0.0 0 0 360.42 182.70
  Z
  M 288.57 206.70
  Q 289.04 205.32 287.85 206.16
  C 281.52 210.64 270.50 221.62 270.60 230.29
  A 0.66 0.65 -8.2 0 0 271.44 230.91
  C 279.09 228.72 286.11 213.86 288.57 206.70
  Z
  M 467.34 214.32
  Q 468.29 212.17 468.95 211.10
  A 0.45 0.45 0.0 0 0 468.27 210.52
  C 462.07 215.82 452.86 224.08 449.79 231.69
  A 1.03 1.02 -89.6 0 0 451.11 233.03
  C 458.43 230.18 464.29 221.19 467.34 214.32
  Z"
/>
<path fill="#030303" d="
  M 223.93 206.07
  L 224.32 209.72
  A 0.83 0.83 0.0 0 0 225.81 210.12
  Q 233.77 199.30 238.72 187.20
  C 239.25 185.90 240.21 184.64 241.78 184.70
  Q 243.52 184.77 243.19 185.80
  Q 241.82 192.03 238.45 197.91
  Q 234.51 205.07 229.90 211.42
  Q 227.26 215.05 223.03 215.39
  Q 218.81 210.53 219.56 201.99
  Q 220.52 191.13 223.42 180.85
  A 0.33 0.33 0.0 0 0 222.85 180.55
  C 217.00 187.32 213.23 194.88 209.09 202.48
  A 2.28 2.28 0.0 0 1 205.06 202.43
  Q 204.24 200.82 204.28 198.25
  C 204.49 182.44 206.25 165.52 211.31 151.07
  Q 211.52 150.47 210.91 150.63
  L 202.58 152.86
  A 1.24 1.23 86.7 0 0 201.68 153.87
  Q 197.61 181.46 198.09 209.29
  C 198.15 213.22 198.96 217.14 199.66 221.01
  A 1.34 1.34 0.0 0 1 198.10 222.56
  C 192.48 221.55 193.84 196.35 194.08 191.89
  Q 194.12 191.12 193.58 191.67
  C 186.58 198.76 180.81 204.81 171.61 206.08
  C 161.71 206.74 159.05 200.91 159.56 192.49
  A 0.54 0.54 0.0 0 0 158.66 192.06
  L 154.43 195.95
  Q 150.70 198.50 150.14 200.71
  C 148.63 206.67 143.62 222.27 135.50 221.52
  A 1.32 1.29 71.5 0 1 134.66 221.09
  C 130.14 215.99 140.76 203.68 144.05 199.98
  C 147.16 196.49 147.14 193.33 146.18 188.98
  A 1.11 1.11 0.0 0 0 144.47 188.31
  C 139.14 191.94 135.11 202.79 132.90 208.76
  A 1.91 1.91 0.0 0 1 130.04 209.67
  Q 128.75 208.80 128.98 206.76
  Q 129.84 199.05 130.50 191.29
  Q 130.57 190.53 129.98 191.03
  L 114.57 204.29
  A 1.25 1.21 -15.7 0 0 114.17 204.98
  Q 111.00 220.51 99.87 231.63
  C 97.20 234.30 90.10 239.71 86.32 235.55
  C 79.90 228.48 104.01 208.27 109.43 203.41
  C 111.09 201.92 110.30 200.10 109.58 197.91
  C 107.40 191.30 97.63 193.70 92.77 195.33
  Q 90.76 196.01 89.16 194.90
  A 0.97 0.96 -71.7 0 1 88.75 194.07
  Q 88.84 192.12 90.10 190.88
  Q 97.72 183.43 103.21 175.58
  A 0.35 0.35 0.0 0 0 102.79 175.06
  Q 95.69 177.93 90.58 183.25
  Q 88.66 185.25 85.82 190.41
  C 83.40 194.80 72.35 214.33 66.37 201.94
  C 64.31 197.66 64.39 193.84 64.73 188.65
  C 64.94 185.42 67.45 168.57 71.87 168.69
  A 1.58 1.58 0.0 0 1 73.26 170.93
  C 69.86 178.30 66.31 193.23 70.27 200.77
  A 1.82 1.82 0.0 0 0 73.20 201.17
  Q 77.69 196.46 80.96 190.65
  Q 84.35 184.63 85.82 182.88
  C 88.88 179.23 100.80 168.62 105.97 170.92
  C 112.43 173.79 99.69 186.57 97.53 189.10
  Q 97.06 189.64 97.78 189.65
  Q 99.58 189.66 101.22 189.56
  Q 111.56 188.93 114.02 198.40
  A 0.56 0.55 61.9 0 0 114.92 198.68
  Q 122.43 191.95 130.46 185.58
  C 133.24 183.38 131.15 181.36 130.46 178.98
  A 0.86 0.85 -25.9 0 1 130.78 178.06
  C 131.79 177.30 132.43 176.76 132.63 175.40
  Q 134.61 162.43 138.69 149.97
  C 140.19 145.40 142.99 138.50 146.70 135.83
  C 150.33 133.21 153.08 136.32 152.97 140.05
  C 152.59 152.56 144.73 166.03 137.91 176.19
  C 135.18 180.27 135.11 187.94 134.71 193.00
  A 0.35 0.35 0.0 0 0 135.37 193.19
  C 138.87 186.24 149.04 176.47 150.91 192.39
  Q 150.99 193.10 151.54 192.64
  L 156.26 188.70
  Q 160.75 186.62 161.76 183.73
  C 162.98 180.20 170.51 166.45 175.12 169.56
  C 177.38 171.08 176.42 173.81 175.64 175.96
  Q 173.46 181.98 168.77 184.95
  A 1.22 1.19 36.6 0 1 167.80 185.08
  Q 165.90 184.52 165.26 185.74
  C 162.03 191.91 161.58 204.31 172.84 201.80
  C 181.69 198.96 188.28 191.08 194.04 185.07
  A 0.67 0.63 -21.4 0 0 194.23 184.67
  L 197.19 155.12
  Q 197.24 154.63 196.75 154.73
  Q 190.37 156.10 185.38 158.64
  L 180.03 160.81
  A 1.43 1.42 46.3 0 1 178.90 160.78
  Q 176.50 159.63 178.42 158.19
  Q 182.20 155.35 186.29 153.85
  L 197.86 149.98
  Q 198.35 149.82 198.52 149.33
  C 199.31 147.01 200.63 140.59 203.88 141.26
  A 1.56 1.55 -80.2 0 1 205.11 143.01
  L 204.48 147.30
  Q 204.38 148.02 205.08 147.85
  L 212.97 145.94
  A 1.01 1.00 -86.1 0 0 213.69 145.31
  Q 215.31 140.97 218.33 137.73
  C 221.35 134.47 226.12 133.12 228.33 138.12
  C 228.87 139.34 228.91 140.78 229.03 142.23
  A 0.61 0.61 0.0 0 0 229.73 142.79
  Q 233.01 142.32 235.42 144.48
  A 1.55 1.55 0.0 0 1 234.29 147.18
  L 229.33 146.90
  A 0.62 0.60 -79.8 0 0 228.71 147.34
  C 225.75 157.68 219.31 171.93 210.10 177.95
  A 1.11 1.11 0.0 0 0 209.61 178.79
  L 208.52 193.21
  A 0.39 0.39 0.0 0 0 209.26 193.42
  C 211.23 189.68 221.74 170.90 226.97 174.82
  Q 227.34 175.10 227.45 175.56
  Q 228.22 178.95 227.58 181.03
  Q 223.82 193.31 223.93 206.07
  Z
  M 223.57 138.86
  C 221.83 139.73 219.43 142.21 218.90 144.07
  Q 218.75 144.57 219.27 144.47
  L 224.56 143.39
  Q 225.32 143.23 225.15 142.47
  L 224.42 139.26
  A 0.60 0.60 0.0 0 0 223.57 138.86
  Z
  M 138.81 167.55
  C 142.65 160.60 149.39 148.20 148.88 140.20
  A 0.42 0.42 0.0 0 0 148.11 139.99
  C 142.97 147.53 140.06 158.09 138.48 167.43
  A 0.18 0.18 0.0 0 0 138.81 167.55
  Z
  M 211.05 172.76
  C 216.87 165.75 221.60 157.07 224.19 148.27
  Q 224.34 147.75 223.80 147.81
  Q 220.87 148.12 217.97 148.67
  Q 216.20 149.00 215.68 150.49
  Q 211.97 161.10 210.44 172.49
  A 0.35 0.35 0.0 0 0 211.05 172.76
  Z
  M 168.0837 180.8198
  A 3.29 0.57 123.3 0 0 170.3664 178.3829
  A 3.29 0.57 123.3 0 0 171.6963 175.3202
  A 3.29 0.57 123.3 0 0 169.4136 177.7571
  A 3.29 0.57 123.3 0 0 168.0837 180.8198
  Z
  M 138.1289 216.2213
  A 5.29 0.63 122.1 0 0 141.4737 212.0748
  A 5.29 0.63 122.1 0 0 143.7511 207.2587
  A 5.29 0.63 122.1 0 0 140.4063 211.4052
  A 5.29 0.63 122.1 0 0 138.1289 216.2213
  Z
  M 90.36 232.99
  C 98.89 230.66 104.99 218.22 108.69 210.44
  A 0.33 0.32 82.6 0 0 108.19 210.05
  C 101.41 216.02 93.20 223.40 89.22 231.61
  A 0.98 0.98 0.0 0 0 90.36 232.99
  Z"
/>
<path fill="#05c1c9" d="
  M 297.73 136.83
  Q 297.51 142.50 295.43 148.09
  L 293.32 138.78
  A 0.83 0.83 0.0 0 1 293.64 137.93
  Q 295.47 136.60 297.73 136.83
  Z"
/>
<path fill="#ffffff" d="
  M 218.90 144.07
  C 219.43 142.21 221.83 139.73 223.57 138.86
  A 0.60 0.60 0.0 0 1 224.42 139.26
  L 225.15 142.47
  Q 225.32 143.23 224.56 143.39
  L 219.27 144.47
  Q 218.75 144.57 218.90 144.07
  Z"
/>
<path fill="#ffffff" d="
  M 148.88 140.20
  C 149.39 148.20 142.65 160.60 138.81 167.55
  A 0.18 0.18 0.0 0 1 138.48 167.43
  C 140.06 158.09 142.97 147.53 148.11 139.99
  A 0.42 0.42 0.0 0 1 148.88 140.20
  Z"
/>
<path fill="#05c1c9" d="
  M 292.74 158.30
  Q 284.01 187.85 270.41 217.39
  Q 269.17 220.08 267.08 221.69
  C 263.45 224.49 258.95 222.41 258.34 218.01
  C 257.78 213.96 259.08 210.70 260.79 205.45
  Q 271.11 173.93 281.31 142.12
  L 288.39 139.68
  Q 289.70 139.23 289.92 140.60
  L 292.74 158.30
  Z"
/>
<path fill="#ffffff" d="
  M 224.19 148.27
  C 221.60 157.07 216.87 165.75 211.05 172.76
  A 0.35 0.35 0.0 0 1 210.44 172.49
  Q 211.97 161.10 215.68 150.49
  Q 216.20 149.00 217.97 148.67
  Q 220.87 148.12 223.80 147.81
  Q 224.34 147.75 224.19 148.27
  Z"
/>
<path fill="#ffffff" d="
  M 223.03 215.39
  Q 221.28 230.58 225.04 245.85
  A 0.79 0.78 74.4 0 1 224.52 246.78
  L 162.37 267.10
  A 0.42 0.41 74.5 0 1 161.83 266.79
  Q 161.22 264.07 159.32 262.02
  Q 158.96 261.63 158.93 261.09
  Q 158.85 259.68 159.00 258.99
  Q 164.93 232.73 171.61 206.08
  C 180.81 204.81 186.58 198.76 193.58 191.67
  Q 194.12 191.12 194.08 191.89
  C 193.84 196.35 192.48 221.55 198.10 222.56
  A 1.34 1.34 0.0 0 0 199.66 221.01
  C 198.96 217.14 198.15 213.22 198.09 209.29
  Q 197.61 181.46 201.68 153.87
  A 1.24 1.23 86.7 0 1 202.58 152.86
  L 210.91 150.63
  Q 211.52 150.47 211.31 151.07
  C 206.25 165.52 204.49 182.44 204.28 198.25
  Q 204.24 200.82 205.06 202.43
  A 2.28 2.28 0.0 0 0 209.09 202.48
  C 213.23 194.88 217.00 187.32 222.85 180.55
  A 0.33 0.33 0.0 0 1 223.42 180.85
  Q 220.52 191.13 219.56 201.99
  Q 218.81 210.53 223.03 215.39
  Z"
/>
<path fill="#ffffff" d="
  M 172.84 201.80
  L 185.38 158.64
  Q 190.37 156.10 196.75 154.73
  Q 197.24 154.63 197.19 155.12
  L 194.23 184.67
  A 0.67 0.63 -21.4 0 1 194.04 185.07
  C 188.28 191.08 181.69 198.96 172.84 201.80
  Z"
/>
<circle fill="#030303" cx="76.65" cy="158.41" r="3.00"/>
<path fill="#ffffff" d="
  M 382.52 179.47
  A 0.12 0.12 0.0 0 1 382.37 179.56
  L 382.31 179.54
  A 3.12 1.92 -76.6 0 1 381.17 176.06
  L 381.23 175.81
  A 3.12 1.92 -76.6 0 1 383.82 173.22
  L 383.88 173.23
  A 0.12 0.12 0.0 0 1 383.97 173.38
  L 382.52 179.47
  Z"
/>
<ellipse fill="#05c1c9" cx="0.00" cy="0.00" transform="translate(169.89,178.07) rotate(123.3)" rx="3.29" ry="0.57"/>
<ellipse fill="#ffffff" cx="0.00" cy="0.00" transform="translate(420.06,178.12) rotate(125.8)" rx="3.60" ry="0.50"/>
<path fill="#ffffff" d="
  M 360.42 182.70
  A 0.43 0.43 0.0 0 1 360.66 183.26
  L 360.60 183.40
  A 11.60 1.36 -68.0 0 1 354.99 193.65
  L 354.88 193.60
  A 11.60 1.36 -68.0 0 1 357.97 182.34
  L 358.02 182.20
  A 0.43 0.43 0.0 0 1 358.58 181.96
  L 360.42 182.70
  Z"
/>
<path fill="#05c1c9" d="
  M 330.46 194.46
  Q 318.41 225.94 298.48 251.80
  Q 296.77 249.38 293.94 256.21
  Q 283.91 267.98 272.34 272.57
  Q 249.59 281.59 233.53 264.48
  Q 233.35 264.29 233.10 264.37
  Q 203.61 274.51 174.18 284.74
  Q 151.34 292.68 131.82 303.54
  Q 127.95 305.68 124.29 308.98
  Q 119.72 313.08 118.08 313.80
  C 111.94 316.50 106.24 311.64 105.74 305.50
  C 104.78 293.86 131.62 280.24 140.64 276.85
  A 2.78 2.77 75.8 0 0 142.41 273.86
  C 140.55 260.96 142.44 250.50 145.17 235.51
  Q 148.81 215.50 154.43 195.95
  L 158.66 192.06
  A 0.54 0.54 0.0 0 1 159.56 192.49
  C 159.05 200.91 161.71 206.74 171.61 206.08
  Q 164.93 232.73 159.00 258.99
  Q 158.85 259.68 158.93 261.09
  Q 158.96 261.63 159.32 262.02
  Q 161.22 264.07 161.83 266.79
  A 0.42 0.41 74.5 0 0 162.37 267.10
  L 224.52 246.78
  A 0.79 0.78 74.4 0 0 225.04 245.85
  Q 221.28 230.58 223.03 215.39
  Q 227.26 215.05 229.90 211.42
  Q 234.51 205.07 238.45 197.91
  Q 237.35 204.61 236.36 211.02
  Q 233.92 226.77 237.97 242.26
  Q 238.12 242.83 238.68 242.64
  Q 252.31 238.07 266.21 235.80
  C 268.27 235.46 272.96 235.96 275.09 237.03
  Q 280.37 239.70 279.32 246.19
  A 0.31 0.31 0.0 0 0 279.86 246.45
  C 294.06 230.18 303.64 211.80 312.23 190.30
  Q 313.43 192.11 312.91 193.52
  Q 311.15 198.41 313.93 202.18
  A 2.55 2.54 -34.7 0 0 317.36 202.80
  C 322.70 199.33 327.02 190.70 330.34 185.28
  A 0.37 0.37 0.0 0 1 331.02 185.49
  L 330.46 194.46
  Z
  M 267.89 251.82
  L 250.94 257.87
  A 0.27 0.27 0.0 0 0 250.97 258.38
  Q 260.14 260.34 267.96 256.22
  Q 267.99 259.10 268.10 262.92
  Q 268.12 263.67 268.38 264.02
  Q 268.74 264.48 269.38 264.43
  A 0.90 0.90 0.0 0 0 270.23 263.54
  L 270.27 259.47
  A 0.77 0.76 -89.6 0 1 271.03 258.71
  L 275.97 258.73
  A 0.68 0.68 0.0 0 1 276.64 259.41
  Q 276.64 261.21 276.57 262.99
  Q 276.55 263.65 276.80 263.96
  Q 277.22 264.46 278.02 264.21
  Q 278.68 264.01 278.69 263.32
  L 278.85 251.79
  A 0.67 0.67 0.0 0 0 277.96 251.15
  L 277.21 251.40
  Q 276.60 251.61 276.62 252.26
  L 276.75 256.01
  A 0.74 0.73 0.0 0 1 275.98 256.77
  L 271.54 256.59
  Q 270.79 256.55 270.65 255.81
  L 269.94 251.74
  Q 269.87 251.36 269.48 251.29
  Q 268.61 251.13 267.89 251.82
  Z"
/>
<path fill="#ffffff" d="
  M 288.57 206.70
  C 286.11 213.86 279.09 228.72 271.44 230.91
  A 0.66 0.65 -8.2 0 1 270.60 230.29
  C 270.50 221.62 281.52 210.64 287.85 206.16
  Q 289.04 205.32 288.57 206.70
  Z"
/>
<ellipse fill="#ffffff" cx="0.00" cy="0.00" transform="translate(140.94,211.74) rotate(122.1)" rx="5.29" ry="0.63"/>
<path fill="#ffffff" d="
  M 108.69 210.44
  C 104.99 218.22 98.89 230.66 90.36 232.99
  A 0.98 0.98 0.0 0 1 89.22 231.61
  C 93.20 223.40 101.41 216.02 108.19 210.05
  A 0.33 0.32 82.6 0 1 108.69 210.44
  Z"
/>
<path fill="#ffffff" d="
  M 467.34 214.32
  C 464.29 221.19 458.43 230.18 451.11 233.03
  A 1.03 1.02 -89.6 0 1 449.79 231.69
  C 452.86 224.08 462.07 215.82 468.27 210.52
  A 0.45 0.45 0.0 0 1 468.95 211.10
  Q 468.29 212.17 467.34 214.32
  Z"
/>
<path fill="#030303" d="
  M 298.48 251.80
  L 303.23 263.41
  Q 303.40 263.83 303.05 264.12
  Q 301.95 265.01 301.42 264.07
  Q 300.73 262.83 299.82 261.75
  A 1.21 1.20 69.3 0 0 298.88 261.32
  L 295.13 261.39
  A 1.00 0.99 -73.6 0 0 294.32 261.84
  Q 293.65 262.87 293.00 263.85
  Q 292.72 264.29 292.37 264.43
  Q 291.89 264.62 291.46 264.49
  A 0.72 0.72 0.0 0 1 291.01 263.53
  L 293.94 256.21
  Q 296.77 249.38 298.48 251.80
  Z
  M 295.42 258.69
  A 0.56 0.56 0.0 0 0 295.95 259.44
  L 298.35 259.44
  A 0.56 0.56 0.0 0 0 298.88 258.69
  L 297.67 255.47
  A 0.56 0.56 0.0 0 0 296.63 255.47
  L 295.42 258.69
  Z"
/>
<path fill="#030303" d="
  M 267.96 256.22
  L 267.89 251.82
  Q 268.61 251.13 269.48 251.29
  Q 269.87 251.36 269.94 251.74
  L 270.65 255.81
  Q 270.79 256.55 271.54 256.59
  L 275.98 256.77
  A 0.74 0.73 0.0 0 0 276.75 256.01
  L 276.62 252.26
  Q 276.60 251.61 277.21 251.40
  L 277.96 251.15
  A 0.67 0.67 0.0 0 1 278.85 251.79
  L 278.69 263.32
  Q 278.68 264.01 278.02 264.21
  Q 277.22 264.46 276.80 263.96
  Q 276.55 263.65 276.57 262.99
  Q 276.64 261.21 276.64 259.41
  A 0.68 0.68 0.0 0 0 275.97 258.73
  L 271.03 258.71
  A 0.77 0.76 -89.6 0 0 270.27 259.47
  L 270.23 263.54
  A 0.90 0.90 0.0 0 1 269.38 264.43
  Q 268.74 264.48 268.38 264.02
  Q 268.12 263.67 268.10 262.92
  Q 267.99 259.10 267.96 256.22
  Z"
/>
<rect fill="#030303" x="315.55" y="251.22" width="2.06" height="13.02" rx="0.64"/>
<path fill="#030303" d="
  M 333.37 259.70
  Q 333.50 261.55 333.42 263.50
  A 1.20 1.19 46.2 0 1 331.03 263.45
  L 331.00 252.21
  Q 331.00 251.62 331.57 251.50
  Q 335.45 250.67 338.95 252.42
  A 1.41 1.39 -86.8 0 1 339.64 253.20
  Q 341.06 257.25 337.28 258.72
  Q 336.80 258.91 337.02 259.37
  Q 338.29 262.08 341.22 262.57
  Q 341.71 262.66 341.77 263.15
  Q 341.92 264.37 340.75 264.49
  C 336.99 264.86 336.30 261.30 334.17 259.32
  A 0.48 0.47 19.5 0 0 333.37 259.70
  Z
  M 333.32 254.05
  L 333.32 256.31
  A 0.79 0.79 0.0 0 0 334.10 257.10
  L 334.26 257.11
  A 3.51 1.80 0.2 0 0 337.78 255.32
  L 337.78 255.08
  A 3.51 1.80 0.2 0 0 334.28 253.27
  L 334.12 253.26
  A 0.79 0.79 0.0 0 0 333.32 254.05
  Z"
/>
<path fill="#030303" d="
  M 374.47 261.46
  A 0.90 0.89 -53.8 0 0 374.25 260.01
  C 372.00 258.92 367.92 258.17 368.06 255.00
  C 368.28 249.96 377.06 250.48 376.85 254.09
  Q 376.82 254.65 376.43 255.02
  A 0.64 0.63 -42.8 0 1 375.53 254.99
  Q 374.10 253.42 372.08 253.27
  A 1.60 1.60 0.0 0 0 371.38 256.36
  C 373.18 257.05 376.03 257.46 376.80 259.36
  C 377.47 261.00 376.76 262.74 375.21 263.63
  Q 371.83 265.58 368.17 263.04
  A 1.43 1.41 -67.5 0 1 367.59 261.61
  Q 368.13 258.69 369.86 260.91
  Q 372.08 263.75 374.47 261.46
  Z"
/>
<path fill="#030303" d="
  M 391.45 262.02
  Q 390.93 263.59 389.64 264.51
  A 0.83 0.83 0.0 0 1 388.40 263.51
  L 393.35 251.94
  A 1.36 1.36 0.0 0 1 395.86 251.96
  L 400.60 263.47
  A 0.65 0.65 0.0 0 1 400.22 264.33
  C 398.50 264.98 398.11 262.85 397.46 261.81
  Q 397.20 261.40 396.72 261.41
  L 392.23 261.46
  A 0.83 0.82 -80.6 0 0 391.45 262.02
  Z
  M 392.66 258.76
  A 0.48 0.48 0.0 0 0 393.10 259.43
  L 395.93 259.45
  A 0.48 0.48 0.0 0 0 396.38 258.79
  L 394.99 255.27
  A 0.48 0.48 0.0 0 0 394.10 255.27
  L 392.66 258.76
  Z"
/>
<path fill="#030303" d="
  M 415.97 262.25
  L 420.31 262.31
  Q 421.05 262.32 421.00 263.06
  L 420.95 263.67
  Q 420.91 264.25 420.33 264.26
  L 413.44 264.37
  A 0.68 0.68 0.0 0 1 412.75 263.69
  L 412.76 252.03
  Q 412.76 251.59 413.17 251.44
  Q 415.31 250.69 415.22 252.24
  Q 414.96 256.90 415.23 261.54
  Q 415.27 262.25 415.97 262.25
  Z"
/>
<path fill="#030303" d="
  M 437.2557 264.3878
  A 6.70 6.27 101.4 0 1 432.4337 256.5807
  A 6.70 6.27 101.4 0 1 439.9043 251.2522
  A 6.70 6.27 101.4 0 1 444.7263 259.0593
  A 6.70 6.27 101.4 0 1 437.2557 264.3878
  Z
  M 437.6018 262.2609
  A 4.53 3.86 102.6 0 0 442.3570 258.6820
  A 4.53 3.86 102.6 0 0 439.5782 253.4191
  A 4.53 3.86 102.6 0 0 434.8230 256.9980
  A 4.53 3.86 102.6 0 0 437.6018 262.2609
  Z"
/>
<path fill="#030303" d="
  M 466.27 259.30
  L 466.19 252.25
  Q 466.18 251.61 466.80 251.48
  L 467.81 251.26
  Q 468.51 251.11 468.51 251.82
  L 468.50 263.06
  A 1.35 1.34 27.4 0 1 466.06 263.83
  L 460.50 256.03
  A 0.32 0.32 0.0 0 0 459.92 256.20
  Q 459.71 259.16 460.04 261.98
  Q 460.21 263.50 459.65 264.19
  A 1.12 1.12 0.0 0 1 457.67 263.48
  L 457.68 252.51
  A 1.28 1.28 0.0 0 1 459.99 251.76
  L 465.64 259.51
  Q 466.28 260.39 466.27 259.30
  Z"
/>
<path fill="#ffffff" d="
  M 267.89 251.82
  L 267.96 256.22
  Q 260.14 260.34 250.97 258.38
  A 0.27 0.27 0.0 0 1 250.94 257.87
  L 267.89 251.82
  Z"
/>
<path fill="#ffffff" d="
  M 333.32 254.05
  A 0.79 0.79 0.0 0 1 334.12 253.26
  L 334.28 253.27
  A 3.51 1.80 0.2 0 1 337.78 255.08
  L 337.78 255.32
  A 3.51 1.80 0.2 0 1 334.26 257.11
  L 334.10 257.10
  A 0.79 0.79 0.0 0 1 333.32 256.31
  L 333.32 254.05
  Z"
/>
<ellipse fill="#ffffff" cx="0.00" cy="0.00" transform="translate(438.59,257.84) rotate(102.6)" rx="4.53" ry="3.86"/>
<path fill="#ffffff" d="
  M 295.42 258.69
  L 296.63 255.47
  A 0.56 0.56 0.0 0 1 297.67 255.47
  L 298.88 258.69
  A 0.56 0.56 0.0 0 1 298.35 259.44
  L 295.95 259.44
  A 0.56 0.56 0.0 0 1 295.42 258.69
  Z"
/>
<path fill="#ffffff" d="
  M 392.66 258.76
  L 394.10 255.27
  A 0.48 0.48 0.0 0 1 394.99 255.27
  L 396.38 258.79
  A 0.48 0.48 0.0 0 1 395.93 259.45
  L 393.10 259.43
  A 0.48 0.48 0.0 0 1 392.66 258.76
  Z"
/>
</svg>
